<svg width="1051" height="252" viewBox="0 0 1051 252" fill="none" xmlns="http://www.w3.org/2000/svg">
<path d="M377.488 210.576C382.48 210.576 387.088 208.416 390.304 205.056L385.168 200.448C383.248 202.656 380.512 204.144 377.488 204.144C371.968 204.144 367.264 199.248 367.264 193.488C367.264 187.776 371.968 182.88 377.488 182.88C380.512 182.88 383.248 184.368 385.168 186.576L390.304 181.968C387.088 178.56 382.48 176.448 377.488 176.448C368.032 176.448 359.968 184.224 359.968 193.488C359.968 202.752 368.032 210.576 377.488 210.576ZM406.686 210.576C414.03 210.576 420.174 204.624 420.174 197.568C420.174 190.512 414.03 184.608 406.686 184.608C399.294 184.608 393.102 190.512 393.102 197.568C393.102 204.624 399.294 210.576 406.686 210.576ZM406.686 204.672C402.942 204.672 399.822 201.408 399.822 197.568C399.822 193.728 402.942 190.512 406.686 190.512C410.382 190.512 413.502 193.728 413.502 197.568C413.502 201.408 410.382 204.672 406.686 204.672ZM437.108 210.576C444.452 210.576 450.596 204.624 450.596 197.568C450.596 190.512 444.452 184.608 437.108 184.608C429.716 184.608 423.524 190.512 423.524 197.568C423.524 204.624 429.716 210.576 437.108 210.576ZM437.108 204.672C433.364 204.672 430.244 201.408 430.244 197.568C430.244 193.728 433.364 190.512 437.108 190.512C440.804 190.512 443.924 193.728 443.924 197.568C443.924 201.408 440.804 204.672 437.108 204.672ZM470.65 184.608C467.194 184.608 464.314 186.096 462.346 188.64V185.184H455.338V218.256H462.346V206.496C464.314 209.088 467.194 210.576 470.65 210.576C477.274 210.576 482.074 205.2 482.074 197.568C482.074 189.984 477.274 184.608 470.65 184.608ZM468.634 204.672C465.226 204.672 462.73 202.176 462.346 198.528V196.608C462.73 193.008 465.226 190.512 468.634 190.512C472.522 190.512 475.258 193.44 475.258 197.568C475.258 201.744 472.522 204.672 468.634 204.672ZM498.737 204.384C495.809 204.384 493.649 202.56 492.833 199.872H510.737C510.737 190.512 506.177 184.608 498.401 184.608C491.153 184.608 485.633 190.032 485.633 197.52C485.633 205.152 491.393 210.576 498.785 210.576C502.433 210.576 506.705 209.04 508.913 206.736L504.449 202.176C503.105 203.472 500.705 204.384 498.737 204.384ZM498.689 190.8C501.521 190.8 503.345 192.384 504.017 194.832H492.929C493.841 192.336 496.049 190.8 498.689 190.8ZM522.486 189.792V185.184H515.478V210H522.486V198.144C522.486 193.488 525.798 190.512 530.982 190.512V184.608C527.19 184.608 524.118 186.576 522.486 189.792ZM546.113 184.608C542.657 184.608 539.249 185.568 535.745 187.344L538.097 192C540.065 190.992 542.225 190.224 544.529 190.224C548.609 190.224 550.241 192.528 550.241 195.168V195.648C548.129 194.832 545.921 194.4 543.905 194.4C538.145 194.4 533.585 197.76 533.585 202.656C533.585 207.408 537.665 210.576 542.945 210.576C545.633 210.576 548.465 209.52 550.241 207.504V210H557.009V195.168C557.009 188.688 552.593 184.608 546.113 184.608ZM544.529 205.728C542.129 205.728 540.353 204.48 540.353 202.464C540.353 200.448 542.369 198.96 544.913 198.96C546.833 198.96 548.657 199.296 550.241 199.872V202.176C549.761 204.48 547.217 205.728 544.529 205.728ZM575.972 203.856C575.492 204.336 574.532 204.672 573.572 204.672C572.276 204.672 571.22 203.52 571.22 201.888V190.848H576.596V185.184H571.22V178.368H564.5V185.184H561.092V190.848H564.5V202.992C564.5 207.456 567.572 210.576 571.94 210.576C573.956 210.576 576.212 209.712 577.652 208.416L575.972 203.856ZM585.545 181.776C587.609 181.776 589.289 180.048 589.289 177.936C589.289 175.968 587.609 174.192 585.545 174.192C583.385 174.192 581.705 175.968 581.705 177.936C581.705 180.048 583.385 181.776 585.545 181.776ZM581.993 210H589.001V185.184H581.993V210ZM603.423 210H609.903L620.511 185.184H613.215L606.687 201.936L600.015 185.184H592.671L603.423 210ZM634.393 204.384C631.465 204.384 629.305 202.56 628.489 199.872H646.393C646.393 190.512 641.833 184.608 634.057 184.608C626.809 184.608 621.289 190.032 621.289 197.52C621.289 205.152 627.049 210.576 634.441 210.576C638.089 210.576 642.361 209.04 644.569 206.736L640.105 202.176C638.761 203.472 636.361 204.384 634.393 204.384ZM634.345 190.8C637.177 190.8 639.001 192.384 639.673 194.832H628.585C629.497 192.336 631.705 190.8 634.345 190.8ZM688.925 210H696.893L683.453 177.024H675.533L662.093 210H670.013L672.125 204.816H686.813L688.925 210ZM674.573 198.816L679.469 186.768L684.365 198.816H674.573ZM707.596 189.792V185.184H700.588V210H707.596V198.144C707.596 193.488 710.908 190.512 716.092 190.512V184.608C712.3 184.608 709.228 186.576 707.596 189.792ZM733.191 203.856C732.711 204.336 731.751 204.672 730.791 204.672C729.495 204.672 728.439 203.52 728.439 201.888V190.848H733.815V185.184H728.439V178.368H721.719V185.184H718.311V190.848H721.719V202.992C721.719 207.456 724.791 210.576 729.159 210.576C731.174 210.576 733.431 209.712 734.871 208.416L733.191 203.856ZM753.146 210H760.202V189.456L770.426 208.08L780.602 189.456V210H787.706V177.024H780.602L770.426 195.648L760.202 177.024H753.146V210ZM805.379 184.608C801.923 184.608 798.515 185.568 795.011 187.344L797.363 192C799.331 190.992 801.491 190.224 803.795 190.224C807.875 190.224 809.507 192.528 809.507 195.168V195.648C807.395 194.832 805.187 194.4 803.171 194.4C797.411 194.4 792.851 197.76 792.851 202.656C792.851 207.408 796.931 210.576 802.211 210.576C804.899 210.576 807.731 209.52 809.507 207.504V210H816.275V195.168C816.275 188.688 811.859 184.608 805.379 184.608ZM803.795 205.728C801.395 205.728 799.619 204.48 799.619 202.464C799.619 200.448 801.635 198.96 804.179 198.96C806.099 198.96 807.923 199.296 809.507 199.872V202.176C809.027 204.48 806.483 205.728 803.795 205.728ZM829.189 189.792V185.184H822.181V210H829.189V198.144C829.189 193.488 832.501 190.512 837.685 190.512V184.608C833.893 184.608 830.821 186.576 829.189 189.792ZM865.872 185.184H857.808L848.592 195.888V176.448H841.584V210H848.592V203.904L851.568 200.688L857.712 210H865.776L856.224 196.176L865.872 185.184ZM880.862 204.384C877.934 204.384 875.774 202.56 874.958 199.872H892.862C892.862 190.512 888.302 184.608 880.526 184.608C873.278 184.608 867.758 190.032 867.758 197.52C867.758 205.152 873.518 210.576 880.91 210.576C884.558 210.576 888.83 209.04 891.038 206.736L886.574 202.176C885.23 203.472 882.83 204.384 880.862 204.384ZM880.814 190.8C883.646 190.8 885.47 192.384 886.142 194.832H875.054C875.966 192.336 878.174 190.8 880.814 190.8ZM910.659 203.856C910.179 204.336 909.219 204.672 908.259 204.672C906.963 204.672 905.907 203.52 905.907 201.888V190.848H911.283V185.184H905.907V178.368H899.187V185.184H895.779V190.848H899.187V202.992C899.187 207.456 902.259 210.576 906.627 210.576C908.643 210.576 910.899 209.712 912.339 208.416L910.659 203.856ZM932.04 184.608C928.584 184.608 925.704 186.096 923.736 188.64V185.184H916.728V218.256H923.736V206.496C925.704 209.088 928.584 210.576 932.04 210.576C938.664 210.576 943.464 205.2 943.464 197.568C943.464 189.984 938.664 184.608 932.04 184.608ZM930.024 204.672C926.616 204.672 924.12 202.176 923.736 198.528V196.608C924.12 193.008 926.616 190.512 930.024 190.512C933.912 190.512 936.648 193.44 936.648 197.568C936.648 201.744 933.912 204.672 930.024 204.672ZM948.416 210H955.424V176.448H948.416V210ZM972.629 184.608C969.173 184.608 965.765 185.568 962.261 187.344L964.613 192C966.581 190.992 968.741 190.224 971.045 190.224C975.125 190.224 976.757 192.528 976.757 195.168V195.648C974.645 194.832 972.437 194.4 970.421 194.4C964.661 194.4 960.101 197.76 960.101 202.656C960.101 207.408 964.181 210.576 969.461 210.576C972.149 210.576 974.981 209.52 976.757 207.504V210H983.525V195.168C983.525 188.688 979.109 184.608 972.629 184.608ZM971.045 205.728C968.645 205.728 966.869 204.48 966.869 202.464C966.869 200.448 968.885 198.96 971.429 198.96C973.349 198.96 975.173 199.296 976.757 199.872V202.176C976.277 204.48 973.733 205.728 971.045 205.728ZM1001.58 210.576C1005.7 210.576 1009.06 208.896 1011.51 206.208L1006.86 202.272C1005.56 203.712 1003.54 204.672 1001.62 204.672C997.927 204.672 994.855 201.408 994.855 197.52C994.855 193.728 997.927 190.512 1001.58 190.512C1003.5 190.512 1005.46 191.424 1006.71 192.816L1011.37 188.832C1008.97 186.24 1005.66 184.608 1001.62 184.608C994.279 184.608 988.039 190.512 988.039 197.568C988.039 204.624 994.231 210.576 1001.58 210.576ZM1027.44 204.384C1024.51 204.384 1022.35 202.56 1021.54 199.872H1039.44C1039.44 190.512 1034.88 184.608 1027.1 184.608C1019.86 184.608 1014.34 190.032 1014.34 197.52C1014.34 205.152 1020.1 210.576 1027.49 210.576C1031.14 210.576 1035.41 209.04 1037.62 206.736L1033.15 202.176C1031.81 203.472 1029.41 204.384 1027.44 204.384ZM1027.39 190.8C1030.22 190.8 1032.05 192.384 1032.72 194.832H1021.63C1022.54 192.336 1024.75 190.8 1027.39 190.8Z" fill="white"/>
<path d="M399.89 137.04C414.51 137.04 426.41 131.09 435.08 121.57L418.59 107.63C414 112.73 406.86 116.13 400.06 116.13C386.97 116.13 376.09 104.57 376.09 90.8C376.09 77.37 386.97 65.98 399.89 65.98C406.69 65.98 413.66 69.21 418.08 74.14L434.57 60.03C426.07 50.85 414.34 45.07 400.06 45.07C374.05 45.07 351.95 65.98 351.95 90.97C351.95 115.96 373.88 137.04 399.89 137.04ZM491.369 137.04C517.379 137.04 539.139 115.96 539.139 90.97C539.139 65.98 517.379 45.07 491.369 45.07C465.189 45.07 443.259 65.98 443.259 90.97C443.259 115.96 465.189 137.04 491.369 137.04ZM491.369 116.13C478.109 116.13 467.059 104.57 467.059 90.97C467.059 77.37 478.109 65.98 491.369 65.98C504.459 65.98 515.509 77.37 515.509 90.97C515.509 104.57 504.459 116.13 491.369 116.13ZM599.113 137.04C625.123 137.04 646.883 115.96 646.883 90.97C646.883 65.98 625.123 45.07 599.113 45.07C572.933 45.07 551.003 65.98 551.003 90.97C551.003 115.96 572.933 137.04 599.113 137.04ZM599.113 116.13C585.853 116.13 574.803 104.57 574.803 90.97C574.803 77.37 585.853 65.98 599.113 65.98C612.203 65.98 623.253 77.37 623.253 90.97C623.253 104.57 612.203 116.13 599.113 116.13ZM717.907 45.07C705.667 45.07 695.467 50.34 688.497 59.35V47.11H663.677V164.24H688.497V122.59C695.467 131.77 705.667 137.04 717.907 137.04C741.367 137.04 758.367 118 758.367 90.97C758.367 64.11 741.367 45.07 717.907 45.07ZM710.767 116.13C698.697 116.13 689.857 107.29 688.497 94.37V87.57C689.857 74.82 698.697 65.98 710.767 65.98C724.537 65.98 734.227 76.35 734.227 90.97C734.227 105.76 724.537 116.13 710.767 116.13ZM790.013 137.04C798.343 137.04 805.143 129.9 805.143 121.23C805.143 113.24 798.343 106.1 790.013 106.1C781.173 106.1 774.203 113.24 774.203 121.23C774.203 129.9 781.173 137.04 790.013 137.04ZM864.48 45.07C852.24 45.07 840.17 48.47 827.76 54.76L836.09 71.25C843.06 67.68 850.71 64.96 858.87 64.96C873.32 64.96 879.1 73.12 879.1 82.47V84.17C871.62 81.28 863.8 79.75 856.66 79.75C836.26 79.75 820.11 91.65 820.11 108.99C820.11 125.82 834.56 137.04 853.26 137.04C862.78 137.04 872.81 133.3 879.1 126.16V135H903.07V82.47C903.07 59.52 887.43 45.07 864.48 45.07ZM858.87 119.87C850.37 119.87 844.08 115.45 844.08 108.31C844.08 101.17 851.22 95.9 860.23 95.9C867.03 95.9 873.49 97.09 879.1 99.13V107.29C877.4 115.45 868.39 119.87 858.87 119.87ZM948.809 63.43V47.11H923.989V135H948.809V93.01C948.809 76.52 960.539 65.98 978.899 65.98V45.07C965.469 45.07 954.589 52.04 948.809 63.43ZM1039.46 113.24C1037.76 114.94 1034.36 116.13 1030.96 116.13C1026.37 116.13 1022.63 112.05 1022.63 106.27V67.17H1041.67V47.11H1022.63V22.97H998.828V47.11H986.758V67.17H998.828V110.18C998.828 125.99 1009.71 137.04 1025.18 137.04C1032.32 137.04 1040.31 133.98 1045.41 129.39L1039.46 113.24Z" fill="white"/>
<path fill-rule="evenodd" clip-rule="evenodd" d="M100.113 65.5932C98.4607 63.9535 98.4607 61.295 100.113 59.6552L137.826 22.2298C139.478 20.5901 142.157 20.5901 143.809 22.2298L181.522 59.6552C183.175 61.295 183.175 63.9535 181.522 65.5932L143.809 103.019C142.157 104.658 139.478 104.658 137.826 103.019L100.113 65.5932ZM50.6761 114.653C49.0238 113.014 49.0238 110.355 50.6761 108.715L88.389 71.2899C90.0413 69.6502 92.7202 69.6502 94.3725 71.2899L132.085 108.715C133.738 110.355 133.738 113.014 132.085 114.653L94.3725 152.079C92.7202 153.718 90.0413 153.718 88.389 152.079L50.6761 114.653ZM1.23924 157.775C-0.413081 159.415 -0.413079 162.074 1.23924 163.713L38.9521 201.139C40.6044 202.779 43.2834 202.779 44.9357 201.139L82.6485 163.713C84.3008 162.074 84.3008 159.415 82.6485 157.775L44.9357 120.35C43.2833 118.71 40.6044 118.71 38.9521 120.35L1.23924 157.775ZM198.987 163.713C197.334 162.074 197.334 159.415 198.987 157.775L236.699 120.35C238.352 118.71 241.031 118.71 242.683 120.35L280.396 157.775C282.048 159.415 282.048 162.074 280.396 163.713L242.683 201.139C241.031 202.779 238.352 202.779 236.699 201.139L198.987 163.713ZM149.55 206.836C147.898 208.475 147.898 211.134 149.55 212.774L187.263 250.199C188.915 251.839 191.594 251.839 193.246 250.199L230.959 212.774C232.611 211.134 232.611 208.475 230.959 206.836L193.246 169.41C191.594 167.77 188.915 167.77 187.263 169.41L149.55 206.836ZM50.6761 212.774C49.0238 211.134 49.0238 208.475 50.6761 206.836L88.389 169.41C90.0413 167.77 92.7202 167.77 94.3725 169.41L132.085 206.836C133.738 208.475 133.738 211.134 132.085 212.774L94.3725 250.199C92.7202 251.839 90.0413 251.839 88.389 250.199L50.6761 212.774ZM100.113 157.775C98.4607 159.415 98.4607 162.074 100.113 163.713L137.826 201.139C139.478 202.779 142.157 202.779 143.809 201.139L181.522 163.713C183.175 162.074 183.175 159.415 181.522 157.775L143.809 120.35C142.157 118.71 139.478 118.71 137.826 120.35L100.113 157.775Z" fill="url(#paint0_linear_1161_42)"/>
<defs>
<linearGradient id="paint0_linear_1161_42" x1="77.5517" y1="221.109" x2="170.629" y2="137.346" gradientUnits="userSpaceOnUse">
<stop stop-color="#7D27C7"/>
<stop offset="1" stop-color="#F80384"/>
</linearGradient>
</defs>
</svg>
